<?xml version="1.0" encoding="UTF-8" standalone="no"?><!DOCTYPE svg PUBLIC "-//W3C//DTD SVG 1.1//EN" "http://www.w3.org/Graphics/SVG/1.1/DTD/svg11.dtd"><svg width="100%" height="100%" viewBox="0 0 863 225" version="1.1" xmlns="http://www.w3.org/2000/svg" xmlns:xlink="http://www.w3.org/1999/xlink" xml:space="preserve" xmlns:serif="http://www.serif.com/" style="fill-rule:evenodd;clip-rule:evenodd;stroke-linejoin:round;stroke-miterlimit:2;"><g><rect x="544.704" y="19.892" width="7.312" height="38.696" style="fill:#2e3b4e;fill-rule:nonzero;"/><path d="M559.379,58.588l0,-38.696l30.621,-0c9.192,-0 13.792,2.783 13.792,8.354l-0,4.725c-0,4.658 -3.184,7.366 -9.563,8.137l9.175,17.48l-7.8,-0l-9.071,-17.259l-19.837,0l-0,17.259l-7.317,-0Zm7.317,-32.98l-0,10.005l23.304,-0c4.325,-0 6.479,-0.88 6.479,-2.642l0,-4.725c0,-1.759 -2.154,-2.638 -6.479,-2.638l-23.304,0Z" style="fill:#2e3b4e;fill-rule:nonzero;"/><path d="M617.863,41l-0,11.871l32.487,-0l-0,5.717l-39.796,-0l0,-38.696l39.796,-0l-0,5.716l-32.487,0l-0,9.675l30.837,0l0,5.717l-30.837,0Z" style="fill:#2e3b4e;fill-rule:nonzero;"/><path d="M690.75,35.117c9.2,-0 13.796,2.783 13.796,8.354l-0,6.871c-0,5.496 -4.596,8.246 -13.796,8.246l-33.038,-0l0,-5.717l33.038,-0c4.329,-0 6.483,-0.842 6.483,-2.529l0,-6.871c0,-1.758 -2.154,-2.634 -6.483,-2.634l-20.562,0c-9.192,0 -13.788,-2.787 -13.788,-8.358l-0,-4.233c-0,-5.571 4.596,-8.354 13.788,-8.354l31.941,-0l0,5.716l-31.941,0c-4.317,0 -6.484,0.879 -6.484,2.638l0,4.233c0,1.754 2.167,2.638 6.484,2.638l20.562,-0Z" style="fill:#2e3b4e;fill-rule:nonzero;"/><path d="M710.979,28.246c0,-5.571 4.6,-8.354 13.796,-8.354l22.204,-0c9.204,-0 13.8,2.783 13.8,8.354l0,22.096c0,5.496 -4.596,8.246 -13.8,8.246l-22.204,-0c-9.196,-0 -13.796,-2.788 -13.796,-8.359l0,-21.983Zm36,24.625c4.325,-0 6.488,-0.842 6.488,-2.529l-0,-22.096c-0,-1.759 -2.163,-2.638 -6.488,-2.638l-22.204,0c-4.325,0 -6.487,0.879 -6.487,2.638l-0,21.983c-0,1.763 2.162,2.642 6.487,2.642l22.204,-0Z" style="fill:#2e3b4e;fill-rule:nonzero;"/><path d="M774.792,42.646l-0,15.937l-7.309,0l0,-38.691l39.796,-0l0,5.716l-32.487,0l-0,11.321l30.291,0l0,5.717l-30.291,-0Z" style="fill:#2e3b4e;fill-rule:nonzero;"/><path d="M813.921,19.892l47.329,-0l-0,5.716l-19.733,0l-0,32.98l-7.305,-0l0,-32.98l-20.291,0l-0,-5.716Z" style="fill:#2e3b4e;fill-rule:nonzero;"/><path d="M161.196,129.592c0.004,0.27 0.017,0.545 0.017,0.816c-0,36.8 -29.825,66.634 -66.621,66.634c-36.8,-0 -66.625,-29.834 -66.625,-66.634c-0,-22.3 10.966,-42.033 27.791,-54.125l-19.966,-19.95c-21.796,17.342 -35.792,44.063 -35.792,74.075c0,52.246 42.346,94.592 94.592,94.592c52.237,0 94.591,-42.346 94.591,-94.592c0,-0.271 -0.021,-0.546 -0.021,-0.816l-27.966,-0Zm125.162,-90.4l-59.116,161.021l25.141,-0l12.359,-34.417l67.933,-0l12.571,34.417l24.929,-0l-59.117,-161.021l-24.7,-0Zm-13.237,103.671l25.583,-70.584l25.596,70.584l-51.179,-0Zm58.671,-103.671l57.45,161.021l23.604,-0l-57.45,-161.021l-23.604,-0Zm142.016,50.733l-28.891,79.629l-29.346,-79.629l-24.917,0l42.342,110.288l23.612,-0l41.684,-110.288l-24.484,0Zm121.788,13.671c-5,-4.992 -10.996,-8.896 -17.975,-11.692c-6.996,-2.791 -14.525,-4.192 -22.613,-4.192c-8.091,0 -15.625,1.513 -22.612,4.53c-6.988,3.016 -13.05,7.091 -18.196,12.233c-5.15,5.158 -9.192,11.25 -12.133,18.317c-2.942,7.054 -4.409,14.633 -4.409,22.721c0,7.937 1.392,15.395 4.192,22.383c2.792,6.987 6.725,13.016 11.796,18.087c5.079,5.075 11.217,9.088 18.416,12.021c7.213,2.946 15.15,4.417 23.83,4.417c12.354,-0 22.833,-2.725 31.433,-8.167c8.6,-5.437 15.325,-12.716 20.179,-21.837l-19.412,-10.809c-2.938,6.034 -7.163,10.842 -12.68,14.45c-5.516,3.609 -12.02,5.409 -19.52,5.409c-9.709,-0 -17.646,-2.575 -23.83,-7.721c-6.17,-5.146 -10.07,-11.984 -11.683,-20.517l91.317,0l-0,-9.262c-0,-8.088 -1.434,-15.584 -4.296,-22.509c-2.875,-6.904 -6.804,-12.858 -11.804,-17.862Zm-74.113,29.558c2.2,-7.35 6.288,-13.308 12.242,-17.866c5.954,-4.559 13.046,-6.838 21.283,-6.838c8.525,-0 15.659,2.133 21.392,6.4c5.733,4.262 9.488,10.363 11.25,18.304l-66.167,0Zm164.159,-45.442c-7.354,0 -13.896,1.48 -19.634,4.417c-5.737,2.938 -10.512,6.988 -14.337,12.129l-0,-14.333l-23.379,0l-0,110.288l23.6,-0l-0,-60.659c-0,-9.708 2.679,-17.35 8.045,-22.942c5.367,-5.587 12.034,-8.383 19.963,-8.383c8.829,0 15.483,2.642 19.971,7.946c4.479,5.283 6.725,12.504 6.725,21.613l-0,62.425l23.821,-0l-0,-64.409c-0,-15.142 -3.975,-26.946 -11.913,-35.408c-7.937,-8.45 -18.896,-12.684 -32.862,-12.684Zm158.641,16.546c-5.145,-5.141 -11.208,-9.191 -18.191,-12.129c-6.992,-2.937 -14.455,-4.417 -22.396,-4.417c-7.942,0 -15.367,1.48 -22.279,4.417c-6.909,2.938 -12.979,6.988 -18.192,12.129c-5.225,5.15 -9.308,11.217 -12.246,18.196c-2.946,6.992 -4.408,14.529 -4.408,22.621c-0,7.937 1.462,15.396 4.408,22.383c2.938,6.988 7.021,13.088 12.246,18.305c5.213,5.22 11.283,9.308 18.192,12.241c6.912,2.946 14.337,4.417 22.279,4.417c7.941,-0 15.404,-1.471 22.396,-4.417c6.983,-2.933 13.046,-7.021 18.191,-12.241c5.15,-5.217 9.23,-11.317 12.246,-18.305c3.013,-6.987 4.521,-14.446 4.521,-22.383c-0,-8.092 -1.508,-15.629 -4.521,-22.621c-3.016,-6.979 -7.096,-13.046 -12.246,-18.196Zm-9.262,54.488c-1.763,4.262 -4.188,8.012 -7.275,11.246c-3.096,3.241 -6.7,5.77 -10.813,7.608c-4.121,1.846 -8.533,2.762 -13.237,2.762c-4.704,0 -9.117,-0.916 -13.234,-2.762c-4.116,-1.838 -7.683,-4.367 -10.695,-7.608c-3.017,-3.234 -5.404,-6.984 -7.171,-11.246c-1.767,-4.267 -2.65,-8.829 -2.65,-13.671c-0,-4.854 0.883,-9.417 2.65,-13.687c1.767,-4.259 4.154,-8.005 7.171,-11.246c3.012,-3.234 6.579,-5.767 10.695,-7.613c4.117,-1.833 8.53,-2.75 13.234,-2.75c4.704,0 9.116,0.917 13.237,2.75c4.113,1.846 7.717,4.379 10.813,7.613c3.087,3.241 5.512,6.987 7.275,11.246c1.758,4.27 2.65,8.833 2.65,13.687c-0,4.842 -0.892,9.404 -2.65,13.671Z" style="fill:#2e3b4e;fill-rule:nonzero;"/><path d="M172.496,76.779c-5.325,-7.725 -11.775,-14.608 -19.113,-20.442l21.009,-20.995l19.775,19.766l-21.671,21.671Zm-77.788,77.788l-0.583,-0.575l-0.121,0.112l-57.067,-57.067c4.746,-8.175 11.171,-15.245 18.813,-20.745l38.842,38.845l38.837,-38.845c7.65,5.5 14.071,12.57 18.813,20.745l-57.534,57.53Z" style="fill:#3bbced;fill-rule:nonzero;"/><path d="M128.254,41.992c-10.462,-3.988 -21.804,-6.188 -33.662,-6.188c-22.471,0 -43.113,7.842 -59.334,20.934l-20.816,-20.817c21.608,-18.354 49.583,-29.429 80.15,-29.429c20.1,-0 39.062,4.816 55.85,13.312l-22.188,22.188Z" style="fill:#74c160;fill-rule:nonzero;"/></g></svg>