<?xml version="1.0" encoding="UTF-8" standalone="no"?><!DOCTYPE svg PUBLIC "-//W3C//DTD SVG 1.1//EN" "http://www.w3.org/Graphics/SVG/1.1/DTD/svg11.dtd"><svg width="100%" height="100%" viewBox="0 0 900 221" version="1.1" xmlns="http://www.w3.org/2000/svg" xmlns:xlink="http://www.w3.org/1999/xlink" xml:space="preserve" xmlns:serif="http://www.serif.com/" style="fill-rule:evenodd;clip-rule:evenodd;stroke-linejoin:round;stroke-miterlimit:2;"><g><rect x="544.292" y="15.879" width="7.308" height="38.667" style="fill:#fff;fill-rule:nonzero;"/><path d="M558.958,54.546l0,-38.667l30.596,0c9.188,0 13.783,2.784 13.783,8.35l0,4.721c0,4.654 -3.183,7.358 -9.558,8.129l9.171,17.467l-7.796,-0l-9.062,-17.246l-19.825,-0l-0,17.246l-7.309,-0Zm7.309,-32.954l-0,9.996l23.287,-0c4.321,-0 6.475,-0.88 6.475,-2.638l0,-4.721c0,-1.758 -2.154,-2.637 -6.475,-2.637l-23.287,-0Z" style="fill:#fff;fill-rule:nonzero;"/><path d="M617.396,36.971l-0,11.862l32.462,0l0,5.713l-39.766,-0l-0,-38.667l39.766,0l0,5.713l-32.462,-0l-0,9.666l30.816,0l0,5.713l-30.816,-0Z" style="fill:#fff;fill-rule:nonzero;"/><path d="M690.229,31.092c9.192,-0 13.783,2.783 13.783,8.35l0,6.866c0,5.492 -4.591,8.238 -13.783,8.238l-33.012,-0l-0,-5.713l33.012,0c4.325,0 6.479,-0.841 6.479,-2.525l0,-6.866c0,-1.759 -2.154,-2.634 -6.479,-2.634l-20.546,0c-9.187,0 -13.779,-2.783 -13.779,-8.35l0,-4.229c0,-5.566 4.592,-8.35 13.779,-8.35l31.917,0l0,5.713l-31.917,-0c-4.316,-0 -6.479,0.879 -6.479,2.637l0,4.229c0,1.754 2.163,2.634 6.479,2.634l20.546,-0Z" style="fill:#fff;fill-rule:nonzero;"/><path d="M710.442,24.229c-0,-5.566 4.595,-8.35 13.787,-8.35l22.188,0c9.196,0 13.787,2.784 13.787,8.35l0,22.079c0,5.492 -4.591,8.238 -13.787,8.238l-22.188,-0c-9.192,-0 -13.787,-2.783 -13.787,-8.35l-0,-21.967Zm35.975,24.604c4.321,0 6.483,-0.841 6.483,-2.525l-0,-22.079c-0,-1.758 -2.162,-2.637 -6.483,-2.637l-22.188,-0c-4.321,-0 -6.483,0.879 -6.483,2.637l-0,21.967c-0,1.758 2.162,2.637 6.483,2.637l22.188,0Z" style="fill:#fff;fill-rule:nonzero;"/><path d="M774.208,38.617l0,15.925l-7.304,-0l0,-38.663l39.767,0l-0,5.713l-32.463,-0l0,11.312l30.267,0l0,5.713l-30.267,-0Z" style="fill:#fff;fill-rule:nonzero;"/><path d="M813.308,15.879l47.292,0l0,5.713l-19.717,-0l0,32.954l-7.3,-0l0,-32.954l-20.275,-0l0,-5.713Z" style="fill:#fff;fill-rule:nonzero;"/><path d="M161.075,125.496c0.004,0.271 0.017,0.546 0.017,0.817c-0,36.77 -29.804,66.583 -66.571,66.583c-36.771,-0 -66.575,-29.813 -66.575,-66.583c-0,-22.284 10.958,-42 27.771,-54.084l-19.95,-19.933c-21.784,17.325 -35.767,44.029 -35.767,74.017c-0,52.208 42.312,94.52 94.521,94.52c52.196,0 94.521,-42.312 94.521,-94.52c-0,-0.271 -0.021,-0.546 -0.021,-0.817l-27.946,-0Zm125.067,-90.329l-59.071,160.895l25.121,0l12.35,-34.387l67.883,0l12.562,34.387l24.909,0l-59.071,-160.895l-24.683,-0Zm-13.225,103.591l25.562,-70.529l25.575,70.529l-51.137,0Zm58.625,-103.591l57.408,160.895l23.583,0l-57.404,-160.895l-23.587,-0Zm141.908,50.691l-28.871,79.571l-29.321,-79.571l-24.9,0l42.313,110.204l23.591,0l41.655,-110.204l-24.467,0Zm121.696,13.663c-4.996,-4.988 -10.988,-8.888 -17.963,-11.684c-6.987,-2.787 -14.512,-4.187 -22.591,-4.187c-8.088,0 -15.617,1.512 -22.596,4.525c-6.984,3.013 -13.042,7.088 -18.183,12.225c-5.146,5.154 -9.184,11.242 -12.126,18.3c-2.937,7.05 -4.404,14.625 -4.404,22.704c0,7.933 1.392,15.388 4.188,22.367c2.792,6.983 6.721,13.008 11.787,18.075c5.075,5.071 11.209,9.079 18.404,12.012c7.205,2.942 15.138,4.413 23.809,4.413c12.346,-0 22.817,-2.721 31.412,-8.159c8.592,-5.433 15.313,-12.708 20.163,-21.82l-19.396,-10.805c-2.938,6.03 -7.158,10.838 -12.671,14.442c-5.512,3.604 -12.012,5.404 -19.508,5.404c-9.7,0 -17.629,-2.575 -23.809,-7.716c-6.166,-5.142 -10.062,-11.975 -11.675,-20.5l91.246,-0l0,-9.255c0,-8.083 -1.429,-15.574 -4.291,-22.491c-2.871,-6.9 -6.8,-12.85 -11.796,-17.85Zm-74.054,29.537c2.195,-7.345 6.279,-13.3 12.229,-17.854c5.95,-4.554 13.037,-6.833 21.271,-6.833c8.516,-0 15.645,2.133 21.375,6.396c5.729,4.258 9.479,10.354 11.241,18.291l-66.116,0Zm164.033,-45.408c-7.35,0 -13.887,1.479 -19.621,4.413c-5.729,2.937 -10.504,6.983 -14.325,12.12l0,-14.325l-23.362,0l-0,110.204l23.583,0l-0,-60.612c-0,-9.7 2.679,-17.333 8.042,-22.921c5.362,-5.583 12.021,-8.379 19.945,-8.379c8.821,0 15.471,2.642 19.955,7.942c4.479,5.279 6.721,12.491 6.721,21.595l-0,62.375l23.804,0l-0,-64.358c-0,-15.129 -3.971,-26.925 -11.904,-35.379c-7.934,-8.446 -18.884,-12.675 -32.838,-12.675Zm158.521,16.533c-5.142,-5.137 -11.2,-9.183 -18.179,-12.12c-6.984,-2.934 -14.442,-4.413 -22.375,-4.413c-7.938,0 -15.359,1.479 -22.263,4.413c-6.904,2.937 -12.971,6.983 -18.179,12.12c-5.221,5.146 -9.3,11.209 -12.238,18.184c-2.941,6.983 -4.404,14.516 -4.404,22.6c0,7.933 1.463,15.387 4.404,22.366c2.938,6.984 7.017,13.079 12.238,18.292c5.208,5.217 11.275,9.3 18.179,12.233c6.904,2.942 14.325,4.413 22.263,4.413c7.933,-0 15.391,-1.471 22.375,-4.413c6.979,-2.933 13.037,-7.016 18.179,-12.233c5.146,-5.213 9.225,-11.308 12.237,-18.292c3.009,-6.979 4.517,-14.433 4.517,-22.366c0,-8.084 -1.508,-15.617 -4.517,-22.6c-3.012,-6.975 -7.091,-13.038 -12.237,-18.184Zm-9.254,54.446c-1.763,4.259 -4.184,8.008 -7.271,11.238c-3.092,3.237 -6.696,5.766 -10.804,7.604c-4.117,1.841 -8.525,2.758 -13.225,2.758c-4.704,0 -9.113,-0.917 -13.225,-2.758c-4.113,-1.838 -7.679,-4.367 -10.688,-7.604c-3.016,-3.23 -5.4,-6.979 -7.166,-11.238c-1.767,-4.262 -2.646,-8.821 -2.646,-13.662c-0,-4.85 0.879,-9.409 2.646,-13.675c1.766,-4.255 4.15,-8 7.166,-11.238c3.009,-3.229 6.575,-5.762 10.688,-7.608c4.112,-1.829 8.521,-2.746 13.225,-2.746c4.7,0 9.108,0.917 13.225,2.746c4.108,1.846 7.712,4.379 10.804,7.608c3.087,3.238 5.508,6.983 7.271,11.238c1.758,4.266 2.646,8.825 2.646,13.675c-0,4.841 -0.888,9.4 -2.646,13.662Z" style="fill:#fff;fill-rule:nonzero;"/><path d="M172.367,72.725c-5.321,-7.721 -11.767,-14.6 -19.1,-20.425l20.991,-20.983l19.763,19.754l-21.654,21.654Zm-77.73,77.729l-0.583,-0.575l-0.121,0.113l-57.025,-57.025c4.742,-8.167 11.163,-15.234 18.8,-20.729l38.813,38.816l38.808,-38.816c7.642,5.495 14.059,12.562 18.796,20.729l-57.488,57.487Z" style="fill:#3bbced;fill-rule:nonzero;"/><path d="M128.158,37.963c-10.454,-3.984 -21.787,-6.184 -33.637,-6.184c-22.454,0 -43.079,7.838 -59.288,20.917l-20.804,-20.8c21.592,-18.338 49.546,-29.404 80.092,-29.404c20.083,-0 39.033,4.812 55.808,13.3l-22.171,22.171Z" style="fill:#74c160;fill-rule:nonzero;"/></g></svg>